<?xml version="1.0" encoding="utf-8"?>
<?xml-stylesheet type="text/xsl" href="rss1.xsl"?>
<rss version="2.0" xmlns:atom="http://www.w3.org/2005/Atom" xmlns:content="http://purl.org/rss/1.0/modules/content/" xmlns:dc="http://purl.org/dc/elements/1.1/" xmlns:media="http://search.yahoo.com/mrss/">
<channel>
 <title>Getty</title>
 <link>http://www.gettyimg.com/</link>
 <atom:link href="http://www.gettyimg.com/" rel="self" type="application/rss+xml" />

 
                <item>
                <title><![CDATA[【Music Videos】NSYNC - I Want You Back (5.1) (Clean)]]></title>
                <link><![CDATA[https://sharemania.us/threads/nsync-i-want-you-back-5-1-clean.235198/]]></link>
                <description><![CDATA[<article>
<blockquote class="messageText SelectQuoteContainer ugc baseHtml">
<img src="https://i.ibb.co/qs8GY5F/NSYNC-I-Want-You-Back-5-1-VOB.jpg" class="bbCodeImage LbImage" alt="[​IMG]" data-url="https://i.ibb.co/qs8GY5F/NSYNC-I-Want-You-Back-5-1-VOB.jpg" style=""> <br>
<br>
<div class="ToggleTriggerAnchor bbCodeSpoilerContainer">
<button type="button" class="button bbCodeSpoilerButton ToggleTrigger Tooltip JsOnly" data-target="> .SpoilerTarget"><span>Spoiler: <span class="SpoilerTitle">MediaInfo</span></span></button>
<div class="SpoilerTarget bbCodeSpoilerText">'N Sync-I Want You Back (5.1).VOB<br>
Format : MPEG-PS<br>
File size : 186 MiB<br>
Duration : 3 min 20 s<br>
Overall bit rate mode : Variable<br>
Overall bit rate : 7 751 kb/s<br>
Frame rate : 29.970 FPS<br>
<br>
Video<br>
ID : 224 (0xE0)<br>
Format : MPEG Video<br>
Format version : Version 2<br>
Format profile : Main@Main<br>
Format settings : CustomMatrix / BVOP<br>
Format settings, BVOP : Yes<br>
Format settings, Matrix : Custom<br>
Format settings, GOP : M=3, N=15<br>
Format settings, picture st : Frame<br>
Duration : 3 min 20 s<br>
Bit rate mode : Variable<br>
Bit rate : 7 148 kb/s<br>
Width : 720 pixels<br>
Height : 480 pixels<br>
Display aspect ratio : 4:3<br>
Frame rate : 29.970 (30000/1001) FPS<br>
Standard : NTSC<br>
Color space : YUV<br>
Chroma subsampling : 4:2:0<br>
Bit depth : 8 bits<br>
Scan type : Interlaced<br>
Scan order : Top Field First<br>
Compression mode : Lossy<br>
Bits/(Pixel*Frame) : 0.690<br>
Time code of first frame : 01:32:15;13<br>
Time code source : Group of pictures header<br>
GOP, Open/Closed : Open<br>
Stream size : 171 MiB (92%)<br>
<br>
Audio<br>
ID : 189 (0xBD)-128 (0x80)<br>
Format : AC-3<br>
Format/Info : Audio Coding 3<br>
Commercial name : Dolby Digital<br>
Muxing mode : DVD-Video<br>
Duration : 3 min 20 s<br>
Bit rate mode : Constant<br>
Bit rate : 448 kb/s<br>
Channel(s) : 6 channels<br>
Channel layout : L R C LFE Ls Rs<br>
Sampling rate : 48.0 kHz<br>
Frame rate : 31.250 FPS (1536 SPF)<br>
Compression mode : Lossy<br>
Delay relative to video : -213 ms<br>
Stream size : 10.7 MiB (6%)<br>
Service kind : Complete Main<br>
<br>
Text<br>
ID : 189 (0xBD)-32 (0x20)<br>
Format : RLE<br>
Format/Info : Run-length encoding<br>
Muxing mode : DVD-Video<br>
Delay relative to video : -67 ms</div>
</div><br>
<div class="bbCodeBlock bbCodeVfcHH HiddenContent">
<div class="attribution type">Hidden Content:</div>
<blockquote>You must reply before you can see the hidden data contained here.</blockquote>
</div>
<div class="messageTextEndMarker">&nbsp;</div>
</blockquote>
</article>]]></description>
                <author><![CDATA[DJ-RoGeRs-BS]]></author>
                </item>

                </channel></rss>